<svg xmlns="http://www.w3.org/2000/svg" width="30.179" height="23.468" viewBox="0 0 30.179 23.468">
    <path id="Icon_awesome-home" data-name="Icon awesome-home" d="M14.689,8.342,5.029,16.3v8.586a.838.838,0,0,0,.838.838l5.871-.015a.838.838,0,0,0,.834-.838V19.854a.838.838,0,0,1,.838-.838h3.353a.838.838,0,0,1,.838.838v5.011a.838.838,0,0,0,.838.841l5.869.016a.838.838,0,0,0,.838-.838V16.292L15.49,8.342A.639.639,0,0,0,14.689,8.342Zm15.258,5.407-4.38-3.61V2.882a.629.629,0,0,0-.629-.629H22a.629.629,0,0,0-.629.629v3.8L16.685,2.827a2.515,2.515,0,0,0-3.2,0L.227,13.749a.629.629,0,0,0-.084.885l1.336,1.624a.629.629,0,0,0,.886.085L14.689,6.194a.639.639,0,0,1,.8,0l12.324,10.15a.629.629,0,0,0,.885-.084l1.336-1.624a.629.629,0,0,0-.089-.887Z" transform="translate(0.001 -2.254)"/>
</svg>
  