<svg xmlns="http://www.w3.org/2000/svg" width="25.468" height="25.468" viewBox="0 0 25.468 25.468">
    <path id="Icon_feather-message-circle" data-name="Icon feather-message-circle" d="M27.968,15.582a10.926,10.926,0,0,1-1.173,4.954,11.082,11.082,0,0,1-9.909,6.128,10.926,10.926,0,0,1-4.954-1.173L4.5,27.968l2.477-7.432A10.926,10.926,0,0,1,5.8,15.582a11.082,11.082,0,0,1,6.128-9.909A10.926,10.926,0,0,1,16.886,4.5h.652a11.056,11.056,0,0,1,10.43,10.43Z" transform="translate(-3.5 -3.5)" stroke="#000" stroke-linecap="round" stroke-linejoin="round" stroke-width="2"/>
</svg>
  